<svg width="94" height="28" viewBox="0 0 94 28" fill="none" xmlns="http://www.w3.org/2000/svg">
<path d="M0 3V6.78795L6.28611 12.7149V3H0Z" fill="white"/>
<path d="M0 23.0004H6.28611V18.5075L0 12.1426V23.0004Z" fill="white"/>
<path d="M22.0989 4.248C23.8589 4.248 25.4029 4.592 26.7309 5.28C28.0749 5.968 29.1069 6.952 29.8269 8.232C30.5629 9.496 30.9309 10.968 30.9309 12.648C30.9309 14.328 30.5629 15.8 29.8269 17.064C29.1069 18.312 28.0749 19.28 26.7309 19.968C25.4029 20.656 23.8589 21 22.0989 21H16.2429V4.248H22.0989ZM21.9789 18.144C23.7389 18.144 25.0989 17.664 26.0589 16.704C27.0189 15.744 27.4989 14.392 27.4989 12.648C27.4989 10.904 27.0189 9.544 26.0589 8.568C25.0989 7.576 23.7389 7.08 21.9789 7.08H19.6029V18.144H21.9789ZM35.15 6.12C34.558 6.12 34.062 5.936 33.662 5.568C33.278 5.184 33.086 4.712 33.086 4.152C33.086 3.592 33.278 3.128 33.662 2.76C34.062 2.376 34.558 2.184 35.15 2.184C35.742 2.184 36.23 2.376 36.614 2.76C37.014 3.128 37.214 3.592 37.214 4.152C37.214 4.712 37.014 5.184 36.614 5.568C36.23 5.936 35.742 6.12 35.15 6.12ZM36.806 7.704V21H33.446V7.704H36.806ZM39.2617 14.304C39.2617 12.96 39.5257 11.768 40.0537 10.728C40.5977 9.688 41.3257 8.888 42.2377 8.328C43.1657 7.768 44.1977 7.488 45.3337 7.488C46.3257 7.488 47.1897 7.688 47.9257 8.088C48.6777 8.488 49.2777 8.992 49.7257 9.6V7.704H53.1097V21H49.7257V19.056C49.2937 19.68 48.6937 20.2 47.9257 20.616C47.1737 21.016 46.3017 21.216 45.3097 21.216C44.1897 21.216 43.1657 20.928 42.2377 20.352C41.3257 19.776 40.5977 18.968 40.0537 17.928C39.5257 16.872 39.2617 15.664 39.2617 14.304ZM49.7257 14.352C49.7257 13.536 49.5657 12.84 49.2457 12.264C48.9257 11.672 48.4937 11.224 47.9497 10.92C47.4057 10.6 46.8217 10.44 46.1977 10.44C45.5737 10.44 44.9977 10.592 44.4697 10.896C43.9417 11.2 43.5097 11.648 43.1737 12.24C42.8537 12.816 42.6937 13.504 42.6937 14.304C42.6937 15.104 42.8537 15.808 43.1737 16.416C43.5097 17.008 43.9417 17.464 44.4697 17.784C45.0137 18.104 45.5897 18.264 46.1977 18.264C46.8217 18.264 47.4057 18.112 47.9497 17.808C48.4937 17.488 48.9257 17.04 49.2457 16.464C49.5657 15.872 49.7257 15.168 49.7257 14.352ZM59.7514 3.24V21H56.3914V3.24H59.7514ZM68.975 21.216C67.695 21.216 66.543 20.936 65.519 20.376C64.495 19.8 63.687 18.992 63.095 17.952C62.519 16.912 62.231 15.712 62.231 14.352C62.231 12.992 62.527 11.792 63.119 10.752C63.727 9.712 64.551 8.912 65.591 8.352C66.631 7.776 67.791 7.488 69.071 7.488C70.351 7.488 71.511 7.776 72.551 8.352C73.591 8.912 74.407 9.712 74.999 10.752C75.607 11.792 75.911 12.992 75.911 14.352C75.911 15.712 75.599 16.912 74.975 17.952C74.367 18.992 73.535 19.8 72.479 20.376C71.439 20.936 70.271 21.216 68.975 21.216ZM68.975 18.288C69.583 18.288 70.151 18.144 70.679 17.856C71.223 17.552 71.655 17.104 71.975 16.512C72.295 15.92 72.455 15.2 72.455 14.352C72.455 13.088 72.119 12.12 71.447 11.448C70.791 10.76 69.983 10.416 69.023 10.416C68.063 10.416 67.255 10.76 66.599 11.448C65.959 12.12 65.639 13.088 65.639 14.352C65.639 15.616 65.951 16.592 66.575 17.28C67.215 17.952 68.015 18.288 68.975 18.288ZM83.5837 7.488C84.5757 7.488 85.4477 7.688 86.1997 8.088C86.9517 8.472 87.5437 8.976 87.9757 9.6V7.704H91.3597V21.096C91.3597 22.328 91.1117 23.424 90.6157 24.384C90.1197 25.36 89.3757 26.128 88.3837 26.688C87.3917 27.264 86.1917 27.552 84.7837 27.552C82.8957 27.552 81.3437 27.112 80.1277 26.232C78.9277 25.352 78.2477 24.152 78.0877 22.632H81.4237C81.5997 23.24 81.9757 23.72 82.5517 24.072C83.1437 24.44 83.8557 24.624 84.6877 24.624C85.6637 24.624 86.4557 24.328 87.0637 23.736C87.6717 23.16 87.9757 22.28 87.9757 21.096V19.032C87.5437 19.656 86.9437 20.176 86.1757 20.592C85.4237 21.008 84.5597 21.216 83.5837 21.216C82.4637 21.216 81.4397 20.928 80.5117 20.352C79.5837 19.776 78.8477 18.968 78.3037 17.928C77.7757 16.872 77.5117 15.664 77.5117 14.304C77.5117 12.96 77.7757 11.768 78.3037 10.728C78.8477 9.688 79.5757 8.888 80.4877 8.328C81.4157 7.768 82.4477 7.488 83.5837 7.488ZM87.9757 14.352C87.9757 13.536 87.8157 12.84 87.4957 12.264C87.1757 11.672 86.7437 11.224 86.1997 10.92C85.6557 10.6 85.0717 10.44 84.4477 10.44C83.8237 10.44 83.2477 10.592 82.7197 10.896C82.1917 11.2 81.7597 11.648 81.4237 12.24C81.1037 12.816 80.9437 13.504 80.9437 14.304C80.9437 15.104 81.1037 15.808 81.4237 16.416C81.7597 17.008 82.1917 17.464 82.7197 17.784C83.2637 18.104 83.8397 18.264 84.4477 18.264C85.0717 18.264 85.6557 18.112 86.1997 17.808C86.7437 17.488 87.1757 17.04 87.4957 16.464C87.8157 15.872 87.9757 15.168 87.9757 14.352Z" fill="white"/>
</svg>
